<svg width="584" height="649" viewBox="0 0 584 649" fill="none" xmlns="http://www.w3.org/2000/svg">
<path d="M31.3593 374.633L41.9067 321.107C57.7322 240.795 135.386 188.292 215.812 203.527C322.368 223.711 414.064 126.949 387.755 21.7375C338.045 -177.058 283.741 -389.287 278.365 -392.383C272.292 -395.879 153.964 -270.335 60.1525 -168.805C18.0208 -123.207 -36.188 -90.4999 -96.2955 -74.964L-263.009 -31.8739C-384.016 -0.597387 -471.195 104.939 -479.062 229.675L-480.591 253.911C-489.587 396.534 -383.446 520.414 -241.131 533.393L-187.26 538.305C-83.2225 547.793 11.162 477.131 31.3593 374.633Z" fill="url(#paint0_linear)"/>
<defs>
<linearGradient id="paint0_linear" x1="765.901" y1="613.444" x2="-269.091" y2="778.629" gradientUnits="userSpaceOnUse">
<stop stop-color="#F96918"/>
<stop offset="1" stop-color="#FFB800"/>
</linearGradient>
</defs>
</svg>
