<svg width="32" height="34" viewBox="0 0 32 34" fill="none" xmlns="http://www.w3.org/2000/svg">
<path d="M0 21.1954H4.19418V24.1056H0V29.8288H4.19418V34H11.5469V29.8288H30.4466V24.1056H11.5469V21.1954H16.3107C19.6246 21.1954 22.1618 21.0499 23.9223 20.7104C27.754 19.9344 32 16.6847 32 10.4765C32 5.04422 28.8414 1.55207 24.699 0.533522C23.301 0.194009 20.4013 0 15.9482 0H4.19418V15.4722H0V21.1954ZM15.068 5.77176C17.7087 5.77176 19.4693 5.86876 20.3495 6.01427C22.6796 6.40228 24.4401 8.09986 24.4401 10.5735C24.4401 12.5621 23.1974 14.2596 21.3333 14.8902C20.3495 15.2297 18.4337 15.4237 15.534 15.4237H11.5469V5.77176H15.068Z" fill="url(#paint0_linear)"/>
<defs>
<linearGradient id="paint0_linear" x1="29.6965" y1="-25.0278" x2="-0.956226" y2="-18.6335" gradientUnits="userSpaceOnUse">
<stop stop-color="#F96918"/>
<stop offset="1" stop-color="#FFB800"/>
</linearGradient>
</defs>
</svg>
